<svg width="60" height="60" viewBox="0 0 60 60" fill="none" xmlns="http://www.w3.org/2000/svg">
    <path d="M30 5.625C16.5352 5.625 5.625 16.5352 5.625 30C5.625 43.4648 16.5352 54.375 30 54.375C43.4648 54.375 54.375 43.4648 54.375 30C54.375 16.5352 43.4648 5.625 30 5.625ZM20.7539 40.418C20.4375 40.957 19.875 41.25 19.2891 41.25C18.9961 41.25 18.7031 41.1797 18.4336 41.0156C17.625 40.5469 17.3555 39.5156 17.8242 38.707L19.4883 35.9414C19.6641 35.6484 19.9688 35.4727 20.3086 35.4727H20.5547C21.7617 35.4727 22.6055 36.1992 22.8516 36.9023L20.7539 40.418ZM34.8398 34.9805L23.9414 34.9922H20.0156H16.6992C15.7383 34.9922 14.9648 34.1953 15.0117 33.2344C15.0469 32.3203 15.8438 31.6289 16.7578 31.6289H22.0078L28.2305 21.0352L26.2148 17.6016C25.7578 16.8164 25.957 15.7852 26.7305 15.293C27.5508 14.7656 28.6289 15.0352 29.1094 15.8555L30.1875 17.6953C30.1875 17.6953 30.1875 17.6953 30.1992 17.6953L31.2773 15.8555C31.7578 15.0352 32.8477 14.7656 33.6563 15.293C34.4297 15.7852 34.6289 16.8164 34.1719 17.6016L32.1562 21.0352L30.1992 24.375L25.9453 31.6289C25.9453 31.6289 25.9453 31.6289 25.9453 31.6406H32.2148C33 31.6406 33.9844 32.0625 34.3828 32.7422L34.418 32.8125C34.7695 33.4102 34.9688 33.8203 34.9688 34.418C34.957 34.7461 34.8398 34.9805 34.8398 34.9805ZM43.3008 34.9922H40.3477C40.3477 34.9922 40.3477 34.9922 40.3477 35.0039L42.5039 38.6719C42.9727 39.4688 42.75 40.5234 41.9414 41.0156C41.6719 41.1797 41.3672 41.2617 41.0625 41.2617C40.4766 41.2617 39.9141 40.957 39.5977 40.4297L36.4102 35.0039L34.4297 31.6289L31.875 27.2578C31.125 25.9805 31.0898 24.3867 31.8047 23.1211C32.3086 22.2305 32.6953 21.9961 32.6953 21.9961L38.3789 31.6172H43.2656C44.1797 31.6172 44.9648 32.3203 45.0117 33.2227C45.0469 34.1953 44.2734 34.9922 43.3008 34.9922Z" fill="#D39567"/>
</svg>
