<svg width="50" height="50" viewBox="0 0 50 50" fill="none" xmlns="http://www.w3.org/2000/svg">
    <path d="M21.345 5C18.5114 4.99977 15.7271 5.74049 13.2682 7.14865C10.8093 8.55682 8.76131 10.5835 7.32753 13.0275C5.89375 15.4716 5.12397 18.2481 5.09458 21.0815C5.0652 23.9149 5.77722 26.7067 7.16 29.18L5.17 34.385C5.00457 34.8177 4.96261 35.2878 5.04879 35.7429C5.13498 36.1981 5.34592 36.6203 5.65808 36.9626C5.97025 37.3048 6.37136 37.5536 6.81667 37.6811C7.26198 37.8087 7.73397 37.81 8.18 37.685L14.3975 35.9425C16.5999 36.9831 19.008 37.5153 21.4438 37.4997C23.8796 37.484 26.2807 36.921 28.4696 35.8523C30.6584 34.7835 32.579 33.2363 34.0892 31.3252C35.5995 29.414 36.6608 27.1878 37.1946 24.8112C37.7284 22.4346 37.7211 19.9683 37.1732 17.5949C36.6253 15.2215 35.5509 13.0016 34.0293 11.0994C32.5078 9.19727 30.578 7.66151 28.3829 6.60573C26.1878 5.54996 23.7808 5.00118 21.345 5ZM16.435 39.35C17.959 41.1246 19.8489 42.5484 21.9751 43.5237C24.1013 44.499 26.4133 45.0026 28.7525 45C31.235 45 33.5925 44.4425 35.7025 43.4425L41.9175 45.185C42.3635 45.31 42.8355 45.3087 43.2808 45.1811C43.7261 45.0536 44.1273 44.8048 44.4394 44.4626C44.7516 44.1203 44.9625 43.6981 45.0487 43.2429C45.1349 42.7878 45.0929 42.3177 44.9275 41.885L42.94 36.68C44.25 34.3325 45 31.625 45 28.75C45 23.9 42.875 19.545 39.5025 16.5675C39.872 18.0074 40.0692 19.4861 40.09 20.9725C41.61 23.185 42.5 25.865 42.5 28.75C42.5 31.375 41.765 33.8275 40.4875 35.915L40.1675 36.44L42.5925 42.7775L35.4425 40.7775L35.005 40.9975C33.13 41.9575 31.005 42.5 28.75 42.5C25.9148 42.5043 23.1483 41.6282 20.8325 39.9925C19.3455 39.9536 17.871 39.738 16.435 39.35Z" fill="#D39567"/>
</svg>
