<svg width="45" height="45" viewBox="0 0 45 45" fill="none" xmlns="http://www.w3.org/2000/svg">
    <path d="M22.5 28.125C25.6125 28.125 28.1062 25.6125 28.1062 22.5L28.125 11.25C28.125 8.1375 25.6125 5.625 22.5 5.625C19.3875 5.625 16.875 8.1375 16.875 11.25V22.5C16.875 25.6125 19.3875 28.125 22.5 28.125ZM33.9 22.5C33.1125 22.5 32.4562 23.0625 32.3437 23.8312C31.65 28.725 27.2437 32.0625 22.5 32.0625C17.7562 32.0625 13.35 28.7437 12.6562 23.8312C12.5985 23.4601 12.4098 23.1219 12.1244 22.8777C11.839 22.6335 11.4756 22.4996 11.1 22.5C10.125 22.5 9.375 23.3625 9.50625 24.3188C10.3687 29.8875 15.0562 34.2562 20.625 35.1V39.375C20.625 40.4062 21.4687 41.25 22.5 41.25C23.5312 41.25 24.375 40.4062 24.375 39.375V35.1C29.925 34.2937 34.6312 29.8875 35.4937 24.3188C35.5239 24.0918 35.5053 23.8609 35.439 23.6418C35.3727 23.4226 35.2603 23.2201 35.1094 23.0479C34.9585 22.8756 34.7725 22.7377 34.5639 22.6432C34.3554 22.5487 34.129 22.4999 33.9 22.5Z" fill="#D39567"/>
</svg>
