<svg width="39" height="50" viewBox="0 0 39 50" fill="none" xmlns="http://www.w3.org/2000/svg">
    <path d="M11.3456 14.0532H5.72063C4.17 14.0532 2.90813 12.7913 2.90813 11.2407V5.61572C2.90813 4.0651 4.17 2.80322 5.72063 2.80322H11.3456C12.8963 2.80322 14.1581 4.0651 14.1581 5.61572V11.2407C14.1581 12.7923 12.8963 14.0532 11.3456 14.0532ZM5.72063 4.67822C5.20406 4.67822 4.78313 5.09916 4.78313 5.61572V11.2407C4.78313 11.7573 5.20406 12.1782 5.72063 12.1782H11.3456C11.8622 12.1782 12.2831 11.7573 12.2831 11.2407V5.61572C12.2831 5.09916 11.8622 4.67822 11.3456 4.67822H5.72063Z" fill="#D39567"/>
    <path d="M11.3456 27.1782H5.72063C4.17 27.1782 2.90813 25.9163 2.90813 24.3657V18.7407C2.90813 17.1901 4.17 15.9282 5.72063 15.9282H11.3456C12.8963 15.9282 14.1581 17.1901 14.1581 18.7407V24.3657C14.1581 25.9173 12.8963 27.1782 11.3456 27.1782ZM5.72063 17.8032C5.20406 17.8032 4.78313 18.2232 4.78313 18.7407V24.3657C4.78313 24.8832 5.20406 25.3032 5.72063 25.3032H11.3456C11.8622 25.3032 12.2831 24.8832 12.2831 24.3657V18.7407C12.2831 18.2232 11.8622 17.8032 11.3456 17.8032H5.72063Z" fill="#D39567"/>
    <path d="M24.3788 14.0532H18.7538C17.2031 14.0532 15.9413 12.7913 15.9413 11.2407V5.61572C15.9413 4.0651 17.2031 2.80322 18.7538 2.80322H24.3788C25.9294 2.80322 27.1913 4.0651 27.1913 5.61572V11.2407C27.1913 12.7923 25.9294 14.0532 24.3788 14.0532ZM18.7538 4.67822C18.2363 4.67822 17.8163 5.09916 17.8163 5.61572V11.2407C17.8163 11.7573 18.2363 12.1782 18.7538 12.1782H24.3788C24.8963 12.1782 25.3163 11.7573 25.3163 11.2407V5.61572C25.3163 5.09916 24.8963 4.67822 24.3788 4.67822H18.7538Z" fill="#D39567"/>
    <path d="M24.3788 27.1782H18.7538C17.2031 27.1782 15.9413 25.9163 15.9413 24.3657V18.7407C15.9413 17.1901 17.2031 15.9282 18.7538 15.9282H24.3788C25.9294 15.9282 27.1913 17.1901 27.1913 18.7407V24.3657C27.1913 25.9173 25.9294 27.1782 24.3788 27.1782ZM18.7538 17.8032C18.2363 17.8032 17.8163 18.2232 17.8163 18.7407V24.3657C17.8163 24.8832 18.2363 25.3032 18.7538 25.3032H24.3788C24.8963 25.3032 25.3163 24.8832 25.3163 24.3657V18.7407C25.3163 18.2232 24.8963 17.8032 24.3788 17.8032H18.7538Z" fill="#D39567"/>
    <path d="M33.5008 30.1525H33.4264C32.8779 30.1525 32.428 30.3098 31.9949 30.5783C31.6153 29.4719 30.6505 28.6749 29.4077 28.6749C28.8593 28.6749 28.3349 28.8322 27.9018 29.1006C27.5222 27.9943 26.5574 27.1973 25.3136 27.1973C24.8291 27.1973 24.3781 27.3189 23.9796 27.5318V24.6846C23.9796 23.1336 22.8062 21.8772 21.2446 21.8772C19.6831 21.8772 18.4163 23.1346 18.4163 24.6846V35.5848L16.6996 33.8744C15.5953 32.7774 13.6405 32.9337 12.6998 33.8744C11.7591 34.8151 11.1425 36.7069 12.489 38.0545L20.3879 45.9009C20.5504 46.0624 20.7298 46.1977 20.9185 46.312C22.3584 47.4865 24.0091 48.1818 27.4981 48.1818C35.4693 48.1818 36.2076 43.8811 36.2076 38.5767V32.961C36.2065 31.4099 35.0634 30.1525 33.5008 30.1525ZM34.7173 38.5757C34.7173 43.0641 34.6963 46.7032 27.497 46.7032C24.4474 46.7032 22.6163 46.0236 21.2289 44.6456L13.7516 37.2176C13.0899 36.5559 13.2567 35.7107 13.7978 35.1685C14.3389 34.6273 15.3331 34.6085 15.8564 35.1276C15.8564 35.1276 17.1683 36.4311 18.2988 37.5553C18.8341 38.088 19.3696 38.6204 19.9054 39.1525V24.9803C19.9054 24.2463 20.5053 23.6506 21.2457 23.6506C21.986 23.6506 22.4915 24.2463 22.4915 24.9803V33.995H22.5062C22.4965 34.0437 22.4916 34.0932 22.4915 34.1428C22.4915 34.5508 22.825 34.8822 23.2361 34.8822C23.6472 34.8822 23.9807 34.5518 23.9807 34.1428C23.9807 34.0925 23.9754 34.0432 23.966 33.995H23.9807V30.3004C23.9807 29.5663 24.5155 28.9707 25.2559 28.9707C25.2559 28.9707 26.5667 28.9528 26.5667 30.3004V35.1769H26.5814C26.5717 35.2256 26.5668 35.2751 26.5667 35.3247C26.5667 35.7327 26.9002 36.0641 27.3113 36.0641C27.7224 36.0641 28.0559 35.7337 28.0559 35.3247C28.0559 35.2744 28.0506 35.2251 28.0412 35.1769H28.0559V31.778C28.0559 31.0439 28.5823 30.4483 29.3227 30.4483C29.3227 30.4483 30.6609 30.5322 30.6609 31.778V36.0641H30.6755C30.6658 36.1127 30.6609 36.1623 30.6609 36.2119C30.6609 36.6199 30.9944 36.9512 31.4054 36.9512C31.8165 36.9512 32.1311 36.6209 32.1311 36.2119C32.1311 36.1616 32.1259 36.1123 32.1175 36.0641H32.1311V33.1382C32.1311 32.4041 32.6827 31.8084 33.4231 31.8084C33.4231 31.8084 34.7204 31.756 34.7204 33.1382V38.5757H34.7173" fill="#D39567"/>
</svg>
