<svg width="60" height="60" viewBox="0 0 60 60" fill="none" xmlns="http://www.w3.org/2000/svg">
    <path d="M11.1914 12.1876H48.6914C49.1295 12.1873 49.5671 12.2151 50.0016 12.2708C49.8543 11.2369 49.4992 10.2436 48.9576 9.35066C48.4161 8.45776 47.6993 7.68377 46.8505 7.07537C46.0018 6.46696 45.0386 6.03674 44.0191 5.81065C42.9995 5.58455 41.9448 5.56726 40.9184 5.75982L10.0781 11.0251H10.043C8.10714 11.3952 6.38564 12.4905 5.2301 14.0872C6.97103 12.8489 9.05503 12.1848 11.1914 12.1876Z" fill="#D39567"/>
    <path d="M48.6914 15H11.1914C9.20295 15.0022 7.29656 15.793 5.8905 17.1991C4.48445 18.6051 3.69358 20.5115 3.69141 22.5V45C3.69358 46.9885 4.48445 48.8949 5.8905 50.3009C7.29656 51.707 9.20295 52.4978 11.1914 52.5H48.6914C50.6799 52.4978 52.5863 51.707 53.9923 50.3009C55.3984 48.8949 56.1892 46.9885 56.1914 45V22.5C56.1892 20.5115 55.3984 18.6051 53.9923 17.1991C52.5863 15.793 50.6799 15.0022 48.6914 15ZM43.125 37.5C42.3833 37.5 41.6583 37.2801 41.0416 36.868C40.4249 36.456 39.9443 35.8703 39.6604 35.1851C39.3766 34.4998 39.3024 33.7458 39.4471 33.0184C39.5918 32.291 39.9489 31.6228 40.4734 31.0984C40.9978 30.5739 41.666 30.2167 42.3934 30.0721C43.1208 29.9274 43.8748 30.0016 44.5601 30.2855C45.2453 30.5693 45.831 31.0499 46.243 31.6666C46.6551 32.2833 46.875 33.0083 46.875 33.75C46.875 34.7446 46.4799 35.6984 45.7766 36.4016C45.0734 37.1049 44.1196 37.5 43.125 37.5Z" fill="#D39567"/>
    <path d="M3.75 30.4102V18.75C3.75 16.2105 5.15625 11.9531 10.0371 11.0309C14.1797 10.2539 18.2812 10.2539 18.2812 10.2539C18.2812 10.2539 20.9766 12.1289 18.75 12.1289C16.5234 12.1289 16.582 15 18.75 15C20.918 15 18.75 17.7539 18.75 17.7539L10.0195 27.6562L3.75 30.4102Z" fill="#D39567"/>
</svg>
